<svg viewBox="0 0 1881 536" style="color-scheme: light dark" xmlns="http://www.w3.org/2000/svg">
  <path fill="none" stroke="currentColor" stroke-miterlimit="3" stroke-width="5" stroke-linecap="round" d="M1015.5 230.7l-.8 4.15h691l6.7-32.6 164.05 90.95-202.6 94.7 7.55-36.35H991.85l-.65 3.25m632.35 49.05l-2.15 9.6 23.7-9.6-18.9-10.6-2.65 10.6h-564.5m-67.2-52.3l22.85-116.7H535.95l-25.8 116.7h481.7zm-481.7 0l-5.35 24.1m31.15-140.8H22.75l-19.8 116.7h507.2M78.55 401.7h874.4"/>
  <path fill="currentColor" d="M81.585 387.518l42.18-237.871h76.41l-42.18 237.871zm123.085 0l32.154-182.552h56.01v27.66h2.42q8.644-10.719 19.017-17.634 10.718-7.26 22.473-10.718 11.755-3.457 23.856-3.457 19.362 0 31.463 5.877 12.447 5.878 18.325 16.942 6.223 10.718 6.223 26.276 0 4.495-.691 9.335-.346 4.84-1.038 10.027l-20.744 118.244h-68.803l19.361-109.946q.346-1.729.346-3.458.346-1.728.346-3.111 0-5.878-2.42-10.027-2.075-4.495-6.224-6.915t-10.718-2.42-12.447 2.42q-5.532 2.075-10.026 6.224-4.15 3.803-7.26 8.989-2.767 5.186-3.804 11.064l-19.016 107.18zm307.366 4.15q-16.595 0-29.042-3.458-12.101-3.458-19.016-11.41-6.57-8.298-6.57-22.473 0-4.149 1.038-12.101t3.457-22.82l11.756-67.765h-25.585l8.298-46.675h28.35l24.548-55.32h51.17l-9.68 55.32h38.723l-8.298 46.675h-38.723l-11.41 64.308q-.691 4.495-1.383 8.298-.345 3.458-.345 6.57 0 6.569 3.111 10.372 3.458 3.803 12.793 3.803h19.361l-7.26 40.452q-5.878 1.729-14.176 3.112-8.298 1.728-16.595 2.42-8.298.691-14.522.691zm178.404 0q-29.734 0-51.17-7.953-21.436-8.298-33.191-24.893-11.41-16.942-11.41-42.873 0-7.606.346-14.52.691-7.261 2.074-13.83 5.187-29.043 20.745-48.059 15.559-19.362 39.07-29.043 23.855-9.68 52.552-9.68 30.08 0 50.825 7.606 21.09 7.606 31.808 23.51 11.064 15.56 11.064 40.107 0 5.532-.692 13.138t-3.457 22.82H662.089q-.345 2.42-1.037 6.223-.346 3.457-.346 6.223 0 8.644 3.112 14.867 3.112 6.223 10.027 9.335 6.914 3.112 17.633 3.112 9.335 0 15.904-2.075 6.915-2.074 11.41-5.532 4.494-3.803 7.26-8.643 2.766-4.84 3.803-10.372h66.729q-2.766 16.25-11.064 29.388-7.952 13.138-21.436 22.473-13.139 8.99-31.809 13.83-18.324 4.84-41.835 4.84zm-22.473-116.17h67.074q.346-1.73.346-3.804.346-2.074.346-3.457 0-7.607-3.112-12.793-2.766-5.186-8.644-7.952-5.877-2.766-14.175-2.766-11.41 0-19.707 3.803-8.298 3.803-13.83 10.718-5.186 6.57-8.298 16.25zm151.436 112.02l32.154-182.552h56.01v27.66h2.42q6.224-10.373 14.522-17.634 8.644-7.26 18.324-10.718 10.027-3.803 20.4-3.803 6.914 0 12.1 1.383t7.607 2.766l-10.027 57.74h-22.127q-11.064 0-19.362 3.11-8.298 2.767-14.176 8.644-5.877 5.532-9.68 13.83-3.458 7.952-5.187 18.325l-14.175 81.25zm142.1 68.112l43.564-250.664h56.01l1.384 25.93h2.42q11.755-16.25 26.277-23.164 14.867-6.915 31.462-6.915 21.436 0 36.303 7.606 15.213 7.606 22.82 23.165 7.952 15.558 7.952 39.415 0 6.569-.692 13.83t-2.074 15.212q-5.532 30.426-17.633 50.825t-30.426 30.77q-18.324 10.027-42.872 10.027-10.372 0-19.707-2.074-9.336-2.075-16.942-6.57-7.26-4.84-12.1-12.1h-2.421l-14.867 84.707zm118.59-114.787q11.065 0 18.325-4.495t11.41-12.446q4.494-7.953 6.569-18.67l3.112-16.596q1.037-5.878 1.037-8.298.346-2.766.346-4.495 0-7.606-2.766-12.792-2.42-5.532-7.953-8.298-5.186-3.112-14.175-3.112-10.718 0-18.67 5.186-7.607 5.186-12.447 14.176-4.495 8.643-6.57 19.361-1.382 7.607-2.074 12.101-.691 4.495-1.037 6.915v3.803q0 7.953 2.42 14.176t7.953 10.027q5.531 3.457 14.52 3.457zm220.24 50.824q-28.006 0-48.75-8.298-20.4-8.297-31.463-25.239-11.064-16.941-11.064-42.526 0-7.261.346-14.176.692-6.915 2.074-13.138 5.187-29.388 20.745-48.75 15.559-19.362 39.76-29.043 24.203-9.68 54.974-9.68 28.351 0 48.75 8.643 20.745 8.298 31.808 25.24 11.41 16.941 11.41 42.872 0 24.202-6.224 43.218-6.223 18.67-17.632 32.845-10.373 12.793-24.894 21.437-14.521 8.297-32.154 12.446-17.287 4.15-37.686 4.15zm4.84-46.675q12.101 0 20.399-4.495 8.298-4.84 13.138-13.484 5.186-8.643 7.26-20.744 2.075-12.101 3.113-17.98 1.037-6.223 1.037-8.988.346-3.112.346-4.84 0-8.644-3.112-14.522-2.766-5.878-8.99-8.99-6.223-3.457-16.25-3.457-12.1 0-20.398 4.84-8.298 4.495-13.484 13.485-4.84 8.643-6.915 20.744-2.075 11.755-3.112 17.979-1.037 6.223-1.383 8.99v4.494q0 8.298 2.766 14.521 3.112 5.878 9.335 9.335 6.224 3.112 16.25 3.112zm128.617 42.526l44.255-250.664h68.803l-44.255 250.664zm145.904-203.989l8.298-46.675h68.803l-8.298 46.675zm-35.266 203.99l32.154-182.553h68.803l-32.154 182.552z"/>
</svg>
